<svg xmlns="http://www.w3.org/2000/svg" width="3088" height="2077" version="1.1">
<style type="text/css">
.l0{
 fill: #000000;
  stroke: #000000;
  stroke-linecap:round;
  stroke-linejoin:round;
  stroke-width: 2.02779;
}
.l1{
 fill: #00ccee;
  stroke: #00ccee;
  stroke-linecap:round;
  stroke-linejoin:round;
  stroke-width: 2.02779;
}
.l2{
  fill: none;
  stroke: #3f3f3f;
  stroke-linecap:round;
  stroke-linejoin:round;
  stroke-width: 2.02779;
}
.l3{
 fill: #cccccc; fill-opacity: 0.5;
  stroke: #cccccc;
  stroke-linecap:round;
  stroke-linejoin:round;
  stroke-width: 2.02779;
}
.l4{
 fill: #88dd00;
  stroke: #88dd00;
  stroke-linecap:round;
  stroke-linejoin:round;
  stroke-width: 2.02779;
}
.l5{
 fill: #bb2200;
  stroke: #bb2200;
  stroke-linecap:round;
  stroke-linejoin:round;
  stroke-width: 2.02779;
}
.l6{
 fill: #00ccee; fill-opacity: 0.5;
  stroke: #00ccee;
  stroke-linecap:round;
  stroke-linejoin:round;
  stroke-width: 2.02779;
}
.l7{
 fill: #ff0000; fill-opacity: 0.5;
  stroke: #ff0000;
  stroke-linecap:round;
  stroke-linejoin:round;
  stroke-width: 2.02779;
}
.l8{
 fill: #ffff00; fill-opacity: 0.5;
  stroke: #ffff00;
  stroke-linecap:round;
  stroke-linejoin:round;
  stroke-width: 2.02779;
}
.l9{
 fill: #ffffff; fill-opacity: 0.5;
  stroke: #ffffff;
  stroke-linecap:round;
  stroke-linejoin:round;
  stroke-width: 2.02779;
}
.l10{
 fill: #ff00ff;
  stroke: #ff00ff;
  stroke-linecap:round;
  stroke-linejoin:round;
  stroke-width: 2.02779;
}
.l11{
 fill: #00ff00; fill-opacity: 0.5;
  stroke: #00ff00;
  stroke-linecap:round;
  stroke-linejoin:round;
  stroke-width: 2.02779;
}
.l12{
 fill: #0044dd; fill-opacity: 0.5;
  stroke: #0044dd;
  stroke-linecap:round;
  stroke-linejoin:round;
  stroke-width: 2.02779;
}
.l13{
 fill: #aaaa00; fill-opacity: 0.5;
  stroke: #aaaa00;
  stroke-linecap:round;
  stroke-linejoin:round;
  stroke-width: 2.02779;
}
.l14{
  fill: none;
  stroke: #aaccaa;
  stroke-linecap:round;
  stroke-linejoin:round;
  stroke-width: 2.02779;
}
.l15{
 fill: #ff7777; fill-opacity: 0.5;
  stroke: #ff7777;
  stroke-linecap:round;
  stroke-linejoin:round;
  stroke-width: 2.02779;
}
.l16{
 fill: #bfff81; fill-opacity: 0.5;
  stroke: #bfff81;
  stroke-linecap:round;
  stroke-linejoin:round;
  stroke-width: 2.02779;
}
.l17{
  fill: none;
  stroke: #00ffcc;
  stroke-linecap:round;
  stroke-linejoin:round;
  stroke-width: 2.02779;
}
.l18{
 fill: #ce0097; fill-opacity: 0.5;
  stroke: #ce0097;
  stroke-linecap:round;
  stroke-linejoin:round;
  stroke-width: 2.02779;
}
.l19{
  fill: none;
  stroke: #d2d46b;
  stroke-linecap:round;
  stroke-linejoin:round;
  stroke-width: 2.02779;
}
.l20{
  fill: none;
  stroke: #ef6158;
  stroke-linecap:round;
  stroke-linejoin:round;
  stroke-width: 2.02779;
}
.l21{
  fill: none;
  stroke: #fdb200;
  stroke-linecap:round;
  stroke-linejoin:round;
  stroke-width: 2.02779;
}
text {font-family: Sans-Serif;}
</style>
<rect class="l0" x="0" y="0" width="3088" height="2077"/>
<text fill="#00ccee"  xml:space="preserve" font-size="26.3613" transform="translate(1588.17, 1257.13)" >VIq</text>
<text fill="#00ccee"  xml:space="preserve" font-size="32.2193" transform="translate(878.665, 1147.18)" >Inp</text>
<text fill="#00ccee"  xml:space="preserve" font-size="32.2193" transform="translate(562.251, 1391.26)" >bias</text>
<text fill="#00ccee"  xml:space="preserve" font-size="32.2193" transform="translate(1843.99, 1147.18)" >Inn</text>
<text fill="#00ccee"  xml:space="preserve" font-size="32.2193" transform="translate(1427.32, 383.612) rotate(270)" >VP</text>
<text fill="#00ccee"  xml:space="preserve" font-size="32.2193" transform="translate(1122.8, 1668.23) rotate(270)" >VN</text>
<text fill="#00ccee"  xml:space="preserve" font-size="32.2193" transform="translate(1088.4, 730.012)" >OutN</text>
<text fill="#00ccee"  xml:space="preserve" font-size="32.2193" transform="translate(1658.57, 734.11)" >OutP</text>
<text fill="#00ccee"  xml:space="preserve" font-size="26.3613" transform="translate(1982.46, 1219.58)" >VM8D</text>
<text fill="#cccccc"  xml:space="preserve" font-size="29.2903" transform="translate(2400.22, 851.146)" >TT_MODELS</text>
<text fill="#cccccc"  xml:space="preserve" font-size="29.2903" transform="translate(2400.22, 1189.11)" >SPICE</text>
<text fill="#cccccc"  xml:space="preserve" font-size="19.5269" transform="translate(1188.34, 1095.75)" >M1</text>
<text fill="#ff0000"  xml:space="preserve" font-size="14.6451" transform="translate(1250.2, 1180.51)" >S</text>
<text fill="#ff0000"  xml:space="preserve" font-size="14.6451" transform="translate(1250.2, 1097.99)" >D</text>
<text fill="#ff0000"  xml:space="preserve" font-size="14.6451" transform="translate(1245.51, 1128.87)" >B</text>
<text fill="#ff0000"  xml:space="preserve" font-size="14.6451" transform="translate(1178.18, 1128.87)" >G</text>
<text fill="#cccccc"  xml:space="preserve" font-size="19.5269" transform="translate(1264.28, 1113.26)" >nfet_01v8_lvt</text>
<text fill="#aaaa00"  xml:space="preserve" font-size="19.5269" transform="translate(1266.63, 1173.2)" >1 x 3 / 0.15</text>
<text fill="#88dd00"  xml:space="preserve" font-size="14.6451" transform="translate(1190.34, 1180.51)" >LVT</text>
<text fill="#cccccc"  xml:space="preserve" font-size="19.5269" transform="translate(1611.64, 1095.75)" >M2</text>
<text fill="#ff0000"  xml:space="preserve" font-size="14.6451" transform="translate(1569.78, 1180.51)" >S</text>
<text fill="#ff0000"  xml:space="preserve" font-size="14.6451" transform="translate(1567.78, 1097.99)" >D</text>
<text fill="#ff0000"  xml:space="preserve" font-size="14.6451" transform="translate(1573.47, 1128.87)" >B</text>
<text fill="#ff0000"  xml:space="preserve" font-size="14.6451" transform="translate(1639.8, 1128.87)" >G</text>
<text fill="#cccccc"  xml:space="preserve" font-size="19.5269" transform="translate(1432.7, 1113.26)" >nfet_01v8_lvt</text>
<text fill="#aaaa00"  xml:space="preserve" font-size="19.5269" transform="translate(1453.35, 1173.2)" >1 x 3 / 0.15</text>
<text fill="#88dd00"  xml:space="preserve" font-size="14.6451" transform="translate(1611.64, 1180.51)" >LVT</text>
<text fill="#cccccc"  xml:space="preserve" font-size="19.5269" transform="translate(1638.96, 1452.5)" >M4</text>
<text fill="#ff0000"  xml:space="preserve" font-size="14.6451" transform="translate(1700.82, 1537.25)" >S</text>
<text fill="#ff0000"  xml:space="preserve" font-size="14.6451" transform="translate(1700.82, 1454.73)" >D</text>
<text fill="#ff0000"  xml:space="preserve" font-size="14.6451" transform="translate(1696.13, 1485.61)" >B</text>
<text fill="#ff0000"  xml:space="preserve" font-size="14.6451" transform="translate(1628.8, 1485.61)" >G</text>
<text fill="#cccccc"  xml:space="preserve" font-size="19.5269" transform="translate(1714.9, 1470)" >nfet_01v8_lvt</text>
<text fill="#aaaa00"  xml:space="preserve" font-size="19.5269" transform="translate(1717.25, 1529.95)" >1 x 1 / 0.3</text>
<text fill="#88dd00"  xml:space="preserve" font-size="14.6451" transform="translate(1640.96, 1537.25)" >LVT</text>
<text fill="#cccccc"  xml:space="preserve" font-size="19.5269" transform="translate(1056.91, 1452.5)" >M3</text>
<text fill="#ff0000"  xml:space="preserve" font-size="14.6451" transform="translate(1118.77, 1537.25)" >S</text>
<text fill="#ff0000"  xml:space="preserve" font-size="14.6451" transform="translate(1118.77, 1454.73)" >D</text>
<text fill="#ff0000"  xml:space="preserve" font-size="14.6451" transform="translate(1114.08, 1485.61)" >B</text>
<text fill="#ff0000"  xml:space="preserve" font-size="14.6451" transform="translate(1046.75, 1485.61)" >G</text>
<text fill="#cccccc"  xml:space="preserve" font-size="19.5269" transform="translate(1132.85, 1470)" >nfet_01v8_lvt</text>
<text fill="#aaaa00"  xml:space="preserve" font-size="19.5269" transform="translate(1135.2, 1529.95)" >1 x 1 / 0.3</text>
<text fill="#88dd00"  xml:space="preserve" font-size="14.6451" transform="translate(1058.91, 1537.25)" >LVT</text>
<text fill="#cccccc"  xml:space="preserve" font-size="19.5269" transform="translate(691.62, 1452.5)" >M7</text>
<text fill="#ff0000"  xml:space="preserve" font-size="14.6451" transform="translate(649.762, 1537.25)" >S</text>
<text fill="#ff0000"  xml:space="preserve" font-size="14.6451" transform="translate(647.762, 1454.73)" >D</text>
<text fill="#ff0000"  xml:space="preserve" font-size="14.6451" transform="translate(653.456, 1485.61)" >B</text>
<text fill="#ff0000"  xml:space="preserve" font-size="14.6451" transform="translate(719.784, 1485.61)" >G</text>
<text fill="#cccccc"  xml:space="preserve" font-size="19.5269" transform="translate(512.68, 1470)" >nfet_01v8_lvt</text>
<text fill="#aaaa00"  xml:space="preserve" font-size="19.5269" transform="translate(545.333, 1529.95)" >1 x 1 / 0.3</text>
<text fill="#88dd00"  xml:space="preserve" font-size="14.6451" transform="translate(691.62, 1537.25)" >LVT</text>
<text fill="#cccccc"  xml:space="preserve" font-size="19.5269" transform="translate(1338.55, 1452.5)" >M9</text>
<text fill="#ff0000"  xml:space="preserve" font-size="14.6451" transform="translate(1400.41, 1537.25)" >S</text>
<text fill="#ff0000"  xml:space="preserve" font-size="14.6451" transform="translate(1400.41, 1454.73)" >D</text>
<text fill="#ff0000"  xml:space="preserve" font-size="14.6451" transform="translate(1395.71, 1485.61)" >B</text>
<text fill="#ff0000"  xml:space="preserve" font-size="14.6451" transform="translate(1328.39, 1485.61)" >G</text>
<text fill="#cccccc"  xml:space="preserve" font-size="19.5269" transform="translate(1414.49, 1470)" >nfet_01v8_lvt</text>
<text fill="#aaaa00"  xml:space="preserve" font-size="19.5269" transform="translate(1416.84, 1529.95)" >5 x 1 / 0.3</text>
<text fill="#88dd00"  xml:space="preserve" font-size="14.6451" transform="translate(1340.55, 1537.25)" >LVT</text>
<text fill="#cccccc"  xml:space="preserve" font-size="19.5269" transform="translate(1388.7, 775.447) rotate(270)" >R1</text>
<text fill="#aaaa00"  xml:space="preserve" font-size="19.5269" transform="translate(1322.98, 856.447) rotate(270)" >1 * 0.35 / 3</text>
<text fill="#cccccc"  xml:space="preserve" font-size="19.5269" transform="translate(1355.84, 934.447) rotate(270)" >res_xhigh_po_0p35</text>
<text fill="#ff0000"  xml:space="preserve" font-size="14.6451" transform="translate(1359.36, 693.12) rotate(270)" >B</text>
<text fill="#cccccc"  xml:space="preserve" font-size="19.5269" transform="translate(1538.91, 775.447) rotate(270)" >R2</text>
<text fill="#aaaa00"  xml:space="preserve" font-size="19.5269" transform="translate(1473.19, 856.447) rotate(270)" >1 * 0.35 / 3</text>
<text fill="#cccccc"  xml:space="preserve" font-size="19.5269" transform="translate(1506.05, 934.447) rotate(270)" >res_xhigh_po_0p35</text>
<text fill="#ff0000"  xml:space="preserve" font-size="14.6451" transform="translate(1509.56, 693.12) rotate(270)" >B</text>
<text fill="#cccccc"  xml:space="preserve" font-size="19.5269" transform="translate(1920.6, 1452.5)" >M8</text>
<text fill="#ff0000"  xml:space="preserve" font-size="14.6451" transform="translate(1982.46, 1537.25)" >S</text>
<text fill="#ff0000"  xml:space="preserve" font-size="14.6451" transform="translate(1982.46, 1454.73)" >D</text>
<text fill="#ff0000"  xml:space="preserve" font-size="14.6451" transform="translate(1977.76, 1485.61)" >B</text>
<text fill="#ff0000"  xml:space="preserve" font-size="14.6451" transform="translate(1910.44, 1485.61)" >G</text>
<text fill="#cccccc"  xml:space="preserve" font-size="19.5269" transform="translate(1996.54, 1470)" >nfet_01v8_lvt</text>
<text fill="#aaaa00"  xml:space="preserve" font-size="19.5269" transform="translate(1998.89, 1529.95)" >3 x 1 / 0.3</text>
<text fill="#88dd00"  xml:space="preserve" font-size="14.6451" transform="translate(1922.6, 1537.25)" >LVT</text>
<text fill="#cccccc"  xml:space="preserve" font-size="19.5269" transform="translate(1273.67, 513.704)" >M5</text>
<text fill="#ff0000"  xml:space="preserve" font-size="14.6451" transform="translate(1229.81, 598.456)" >D</text>
<text fill="#ff0000"  xml:space="preserve" font-size="14.6451" transform="translate(1231.81, 515.943)" >S</text>
<text fill="#ff0000"  xml:space="preserve" font-size="14.6451" transform="translate(1235.51, 546.823)" >B</text>
<text fill="#ff0000"  xml:space="preserve" font-size="14.6451" transform="translate(1301.83, 546.823)" >G</text>
<text fill="#cccccc"  xml:space="preserve" font-size="19.5269" transform="translate(1129.73, 531.205)" >pfet_01v8</text>
<text fill="#aaaa00"  xml:space="preserve" font-size="19.5269" transform="translate(1115.38, 591.154)" >1 x 2 / 0.15</text>
<text fill="#cccccc"  xml:space="preserve" font-size="19.5269" transform="translate(1526.31, 513.704)" >M6</text>
<text fill="#ff0000"  xml:space="preserve" font-size="14.6451" transform="translate(1588.17, 598.456)" >D</text>
<text fill="#ff0000"  xml:space="preserve" font-size="14.6451" transform="translate(1588.17, 515.943)" >S</text>
<text fill="#ff0000"  xml:space="preserve" font-size="14.6451" transform="translate(1583.47, 546.823)" >B</text>
<text fill="#ff0000"  xml:space="preserve" font-size="14.6451" transform="translate(1516.14, 546.823)" >G</text>
<text fill="#cccccc"  xml:space="preserve" font-size="19.5269" transform="translate(1602.25, 531.205)" >pfet_01v8</text>
<text fill="#aaaa00"  xml:space="preserve" font-size="19.5269" transform="translate(1604.59, 591.154)" >1 x 2 / 0.15</text>
<path class="l4" d="M2409.61 927.817L2484.71 927.817"/>
<path class="l4" d="M2409.61 946.593L2447.16 946.593"/>
<path class="l4" d="M2409.61 965.369L2484.71 965.369"/>
<path class="l4" d="M2409.61 984.145L2465.94 984.145"/>
<path class="l4" d="M2409.61 1002.92L2465.94 1002.92"/>
<path class="l4" d="M2409.61 1021.7L2541.04 1021.7"/>
<path class="l4" d="M2409.61 1040.47L2447.16 1040.47"/>
<path class="l4" d="M2409.61 909.042L2503.49 909.042"/>
<path class="l4" d="M2409.61 890.266L2447.16 890.266"/>
<path class="l4" d="M2559.81 890.266L2578.59 890.266"/>
<path class="l4" d="M2578.59 890.266L2578.59 1078.02"/>
<path class="l4" d="M2409.61 1078.02L2578.59 1078.02"/>
<path class="l4" d="M2409.61 1059.25L2409.61 1078.02"/>
<path class="l4" d="M2559.81 871.49L2559.81 1059.25"/>
<path class="l4" d="M2390.83 1059.25L2559.81 1059.25"/>
<path class="l4" d="M2390.83 871.49L2390.83 1059.25"/>
<path class="l4" d="M2390.83 871.49L2559.81 871.49"/>
<path class="l4" d="M2409.61 1265.78L2484.71 1265.78"/>
<path class="l4" d="M2409.61 1284.56L2447.16 1284.56"/>
<path class="l4" d="M2409.61 1303.33L2484.71 1303.33"/>
<path class="l4" d="M2409.61 1322.11L2465.94 1322.11"/>
<path class="l4" d="M2409.61 1340.89L2465.94 1340.89"/>
<path class="l4" d="M2409.61 1359.66L2541.04 1359.66"/>
<path class="l4" d="M2409.61 1378.44L2447.16 1378.44"/>
<path class="l4" d="M2409.61 1247.01L2503.49 1247.01"/>
<path class="l4" d="M2409.61 1228.23L2447.16 1228.23"/>
<path class="l4" d="M2559.81 1228.23L2578.59 1228.23"/>
<path class="l4" d="M2578.59 1228.23L2578.59 1415.99"/>
<path class="l4" d="M2409.61 1415.99L2578.59 1415.99"/>
<path class="l4" d="M2409.61 1397.21L2409.61 1415.99"/>
<path class="l4" d="M2559.81 1209.45L2559.81 1397.21"/>
<path class="l4" d="M2390.83 1397.21L2559.81 1397.21"/>
<path class="l4" d="M2390.83 1209.45L2390.83 1397.21"/>
<path class="l4" d="M2390.83 1209.45L2559.81 1209.45"/>
<path class="l4" d="M1222.04 1092.11L1222.04 1176.6"/>
<path class="l4" d="M1170.4 1134.35L1212.65 1134.35"/>
<path class="l4" d="M1245.51 1078.02L1245.51 1101.49"/>
<path class="l4" d="M1245.51 1167.21L1245.51 1190.68"/>
<path class="l4" d="M1212.65 1106.19L1212.65 1162.52"/>
<path class="l4" d="M1222.04 1101.49L1245.51 1101.49"/>
<path class="l4" d="M1222.04 1167.21L1236.12 1167.21"/>
<path class="l4" d="M1236.12 1162.52L1245.51 1167.21L1236.12 1171.9L1236.12 1162.52"/>
<path class="l4" d="M1606.94 1092.11L1606.94 1176.6"/>
<path class="l4" d="M1616.33 1134.35L1658.57 1134.35"/>
<path class="l4" d="M1583.47 1078.02L1583.47 1101.49"/>
<path class="l4" d="M1583.47 1167.21L1583.47 1190.68"/>
<path class="l4" d="M1616.33 1106.19L1616.33 1162.52"/>
<path class="l4" d="M1583.47 1101.49L1606.94 1101.49"/>
<path class="l4" d="M1592.86 1167.21L1606.94 1167.21"/>
<path class="l4" d="M1592.86 1162.52L1583.47 1167.21L1592.86 1171.9L1592.86 1162.52"/>
<path class="l4" d="M1672.66 1448.85L1672.66 1533.34"/>
<path class="l4" d="M1621.02 1491.09L1663.27 1491.09"/>
<path class="l4" d="M1696.13 1434.76L1696.13 1458.23"/>
<path class="l4" d="M1696.13 1523.95L1696.13 1547.42"/>
<path class="l4" d="M1663.27 1462.93L1663.27 1519.26"/>
<path class="l4" d="M1672.66 1458.23L1696.13 1458.23"/>
<path class="l4" d="M1672.66 1523.95L1686.74 1523.95"/>
<path class="l4" d="M1686.74 1519.26L1696.13 1523.95L1686.74 1528.64L1686.74 1519.26"/>
<path class="l4" d="M1090.61 1448.85L1090.61 1533.34"/>
<path class="l4" d="M1038.97 1491.09L1081.22 1491.09"/>
<path class="l4" d="M1114.08 1434.76L1114.08 1458.23"/>
<path class="l4" d="M1114.08 1523.95L1114.08 1547.42"/>
<path class="l4" d="M1081.22 1462.93L1081.22 1519.26"/>
<path class="l4" d="M1090.61 1458.23L1114.08 1458.23"/>
<path class="l4" d="M1090.61 1523.95L1104.69 1523.95"/>
<path class="l4" d="M1104.69 1519.26L1114.08 1523.95L1104.69 1528.64L1104.69 1519.26"/>
<path class="l4" d="M686.926 1448.85L686.926 1533.34"/>
<path class="l4" d="M696.314 1491.09L738.559 1491.09"/>
<path class="l4" d="M663.456 1434.76L663.456 1458.23"/>
<path class="l4" d="M663.456 1523.95L663.456 1547.42"/>
<path class="l4" d="M696.314 1462.93L696.314 1519.26"/>
<path class="l4" d="M663.456 1458.23L686.926 1458.23"/>
<path class="l4" d="M672.844 1523.95L686.926 1523.95"/>
<path class="l4" d="M672.844 1519.26L663.456 1523.95L672.844 1528.64L672.844 1519.26"/>
<path class="l4" d="M1372.24 1448.85L1372.24 1533.34"/>
<path class="l4" d="M1320.61 1491.09L1362.86 1491.09"/>
<path class="l4" d="M1395.71 1434.76L1395.71 1458.23"/>
<path class="l4" d="M1395.71 1523.95L1395.71 1547.42"/>
<path class="l4" d="M1362.86 1462.93L1362.86 1519.26"/>
<path class="l4" d="M1372.24 1458.23L1395.71 1458.23"/>
<path class="l4" d="M1372.24 1523.95L1386.33 1523.95"/>
<path class="l4" d="M1386.33 1519.26L1395.71 1523.95L1386.33 1528.64L1386.33 1519.26"/>
<path class="l4" d="M1283.06 721.283L1301.83 721.283"/>
<path class="l4" d="M1301.83 721.283L1306.53 735.365"/>
<path class="l4" d="M1306.53 735.365L1315.92 707.202"/>
<path class="l4" d="M1315.92 707.202L1325.3 735.365"/>
<path class="l4" d="M1325.3 735.365L1334.69 707.202"/>
<path class="l4" d="M1334.69 707.202L1344.08 735.365"/>
<path class="l4" d="M1344.08 735.365L1353.47 707.202"/>
<path class="l4" d="M1353.47 707.202L1362.86 735.365"/>
<path class="l4" d="M1362.86 735.365L1372.24 707.202"/>
<path class="l4" d="M1372.24 707.202L1376.94 721.283"/>
<path class="l4" d="M1376.94 721.283L1395.71 721.283"/>
<path class="l4" d="M1433.26 721.283L1452.04 721.283"/>
<path class="l4" d="M1452.04 721.283L1456.73 735.365"/>
<path class="l4" d="M1456.73 735.365L1466.12 707.202"/>
<path class="l4" d="M1466.12 707.202L1475.51 735.365"/>
<path class="l4" d="M1475.51 735.365L1484.9 707.202"/>
<path class="l4" d="M1484.9 707.202L1494.29 735.365"/>
<path class="l4" d="M1494.29 735.365L1503.67 707.202"/>
<path class="l4" d="M1503.67 707.202L1513.06 735.365"/>
<path class="l4" d="M1513.06 735.365L1522.45 707.202"/>
<path class="l4" d="M1522.45 707.202L1527.14 721.283"/>
<path class="l4" d="M1527.14 721.283L1545.92 721.283"/>
<path class="l4" d="M1954.29 1448.85L1954.29 1533.34"/>
<path class="l4" d="M1902.66 1491.09L1944.91 1491.09"/>
<path class="l4" d="M1977.76 1434.76L1977.76 1458.23"/>
<path class="l4" d="M1977.76 1523.95L1977.76 1547.42"/>
<path class="l4" d="M1944.91 1462.93L1944.91 1519.26"/>
<path class="l4" d="M1954.29 1458.23L1977.76 1458.23"/>
<path class="l4" d="M1954.29 1523.95L1968.38 1523.95"/>
<path class="l4" d="M1968.38 1519.26L1977.76 1523.95L1968.38 1528.64L1968.38 1519.26"/>
<path class="l4" d="M1268.98 510.055L1268.98 594.547"/>
<path class="l4" d="M1245.51 495.974L1245.51 519.443"/>
<path class="l4" d="M1245.51 585.159L1245.51 608.628"/>
<path class="l4" d="M1278.36 524.137L1278.36 580.465"/>
<path class="l4" d="M1245.51 585.159L1268.98 585.159"/>
<path class="l4" d="M1245.51 519.443L1259.59 519.443"/>
<path class="l4" d="M1297.14 552.301L1320.61 552.301"/>
<path class="l4" d="M1259.59 514.749L1268.98 519.443L1259.59 524.137L1259.59 514.749"/>
<circle class="l4" cx="1287.75" cy="552.301" r="9.38791" style="fill:none;"/>
<path class="l4" d="M1560 510.055L1560 594.547"/>
<path class="l4" d="M1583.47 495.974L1583.47 519.443"/>
<path class="l4" d="M1583.47 585.159L1583.47 608.628"/>
<path class="l4" d="M1550.61 524.137L1550.61 580.465"/>
<path class="l4" d="M1560 585.159L1583.47 585.159"/>
<path class="l4" d="M1569.39 519.443L1583.47 519.443"/>
<path class="l4" d="M1508.37 552.301L1531.84 552.301"/>
<path class="l4" d="M1569.39 514.749L1560 519.443L1569.39 524.137L1569.39 514.749"/>
<circle class="l4" cx="1541.23" cy="552.301" r="9.38791" style="fill:none;"/>
<path class="l5" d="M1245.51 1129.66L1236.12 1134.35L1245.51 1139.05L1245.51 1129.66"/>
<path class="l5" d="M1240.81 1073.33L1250.2 1073.33L1250.2 1082.72L1240.81 1082.72L1240.81 1073.33z"/>
<path class="l5" d="M1165.71 1129.66L1175.1 1129.66L1175.1 1139.05L1165.71 1139.05L1165.71 1129.66z"/>
<path class="l5" d="M1240.81 1185.99L1250.2 1185.99L1250.2 1195.37L1240.81 1195.37L1240.81 1185.99z"/>
<path class="l5" d="M1245.36 1134.2L1245.65 1134.2L1245.65 1134.5L1245.36 1134.5L1245.36 1134.2z"/>
<path class="l5" d="M1583.47 1129.66L1592.86 1134.35L1583.47 1139.05L1583.47 1129.66"/>
<path class="l5" d="M1578.78 1073.33L1588.17 1073.33L1588.17 1082.72L1578.78 1082.72L1578.78 1073.33z"/>
<path class="l5" d="M1653.88 1129.66L1663.27 1129.66L1663.27 1139.05L1653.88 1139.05L1653.88 1129.66z"/>
<path class="l5" d="M1578.78 1185.99L1588.17 1185.99L1588.17 1195.37L1578.78 1195.37L1578.78 1185.99z"/>
<path class="l5" d="M1583.32 1134.2L1583.62 1134.2L1583.62 1134.5L1583.32 1134.5L1583.32 1134.2z"/>
<path class="l5" d="M1696.13 1486.4L1686.74 1491.09L1696.13 1495.79L1696.13 1486.4"/>
<path class="l5" d="M1691.43 1430.07L1700.82 1430.07L1700.82 1439.46L1691.43 1439.46L1691.43 1430.07z"/>
<path class="l5" d="M1616.33 1486.4L1625.72 1486.4L1625.72 1495.79L1616.33 1495.79L1616.33 1486.4z"/>
<path class="l5" d="M1691.43 1542.73L1700.82 1542.73L1700.82 1552.11L1691.43 1552.11L1691.43 1542.73z"/>
<path class="l5" d="M1695.98 1490.95L1696.27 1490.95L1696.27 1491.24L1695.98 1491.24L1695.98 1490.95z"/>
<path class="l5" d="M1114.08 1486.4L1104.69 1491.09L1114.08 1495.79L1114.08 1486.4"/>
<path class="l5" d="M1109.38 1430.07L1118.77 1430.07L1118.77 1439.46L1109.38 1439.46L1109.38 1430.07z"/>
<path class="l5" d="M1034.28 1486.4L1043.67 1486.4L1043.67 1495.79L1034.28 1495.79L1034.28 1486.4z"/>
<path class="l5" d="M1109.38 1542.73L1118.77 1542.73L1118.77 1552.11L1109.38 1552.11L1109.38 1542.73z"/>
<path class="l5" d="M1113.93 1490.95L1114.22 1490.95L1114.22 1491.24L1113.93 1491.24L1113.93 1490.95z"/>
<path class="l5" d="M663.456 1486.4L672.844 1491.09L663.456 1495.79L663.456 1486.4"/>
<path class="l5" d="M658.762 1430.07L668.15 1430.07L668.15 1439.46L658.762 1439.46L658.762 1430.07z"/>
<path class="l5" d="M733.865 1486.4L743.253 1486.4L743.253 1495.79L733.865 1495.79L733.865 1486.4z"/>
<path class="l5" d="M658.762 1542.73L668.15 1542.73L668.15 1552.11L658.762 1552.11L658.762 1542.73z"/>
<path class="l5" d="M663.309 1490.95L663.603 1490.95L663.603 1491.24L663.309 1491.24L663.309 1490.95z"/>
<path class="l5" d="M1395.71 1486.4L1386.33 1491.09L1395.71 1495.79L1395.71 1486.4"/>
<path class="l5" d="M1391.02 1430.07L1400.41 1430.07L1400.41 1439.46L1391.02 1439.46L1391.02 1430.07z"/>
<path class="l5" d="M1315.92 1486.4L1325.3 1486.4L1325.3 1495.79L1315.92 1495.79L1315.92 1486.4z"/>
<path class="l5" d="M1391.02 1542.73L1400.41 1542.73L1400.41 1552.11L1391.02 1552.11L1391.02 1542.73z"/>
<path class="l5" d="M1395.57 1490.95L1395.86 1490.95L1395.86 1491.24L1395.57 1491.24L1395.57 1490.95z"/>
<path class="l5" d="M1581.12 1263.44L1585.82 1263.44L1585.82 1268.13L1581.12 1268.13L1581.12 1263.44z"/>
<path class="l5" d="M963.869 1134.35L952.134 1124.96L936.879 1124.96L936.879 1143.74L952.134 1143.74L963.869 1134.35"/>
<path class="l5" d="M963.851 1134.33L963.888 1134.33L963.888 1134.37L963.851 1134.37L963.851 1134.33z"/>
<path class="l5" d="M663.456 1378.44L651.721 1369.05L636.466 1369.05L636.466 1387.83L651.721 1387.83L663.456 1378.44"/>
<path class="l5" d="M663.438 1378.42L663.474 1378.42L663.474 1378.46L663.438 1378.46L663.438 1378.42z"/>
<path class="l5" d="M1808.78 1134.35L1820.52 1124.96L1835.77 1124.96L1835.77 1143.74L1820.52 1143.74L1808.78 1134.35"/>
<path class="l5" d="M1808.76 1134.33L1808.8 1134.33L1808.8 1134.37L1808.76 1134.37L1808.76 1134.33z"/>
<path class="l5" d="M1414.49 420.87L1405.39 410.309L1405.39 400.628L1414.49 390.066L1423.58 400.628L1423.58 410.309L1414.49 420.87"/>
<path class="l5" d="M1414.47 420.852L1414.51 420.852L1414.51 420.889L1414.47 420.889L1414.47 420.852z"/>
<path class="l5" d="M1114.08 1584.97L1123.17 1595.53L1123.17 1605.21L1114.08 1615.78L1104.98 1605.21L1104.98 1595.53L1114.08 1584.97"/>
<path class="l5" d="M1114.06 1584.95L1114.09 1584.95L1114.09 1584.99L1114.06 1584.99L1114.06 1584.95z"/>
<path class="l5" d="M1207.95 730.671L1207.95 711.896L1192.7 711.896L1180.96 721.283L1192.7 730.671L1207.95 730.671"/>
<path class="l5" d="M1207.94 721.265L1207.97 721.265L1207.97 721.302L1207.94 721.302L1207.94 721.265z"/>
<path class="l5" d="M1621.02 711.896L1621.02 730.671L1636.28 730.671L1648.01 721.283L1636.28 711.896L1621.02 711.896"/>
<path class="l5" d="M1621 721.265L1621.04 721.265L1621.04 721.302L1621 721.302L1621 721.265z"/>
<path class="l5" d="M1278.36 716.589L1287.75 716.589L1287.75 725.977L1278.36 725.977L1278.36 716.589z"/>
<path class="l5" d="M1391.02 716.589L1400.41 716.589L1400.41 725.977L1391.02 725.977L1391.02 716.589z"/>
<path class="l5" d="M1334.69 679.038L1344.08 679.038L1344.08 688.426L1334.69 688.426L1334.69 679.038z"/>
<path class="l5" d="M1428.57 716.589L1437.96 716.589L1437.96 725.977L1428.57 725.977L1428.57 716.589z"/>
<path class="l5" d="M1541.23 716.589L1550.61 716.589L1550.61 725.977L1541.23 725.977L1541.23 716.589z"/>
<path class="l5" d="M1484.9 679.038L1494.29 679.038L1494.29 688.426L1484.9 688.426L1484.9 679.038z"/>
<path class="l5" d="M1977.76 1486.4L1968.38 1491.09L1977.76 1495.79L1977.76 1486.4"/>
<path class="l5" d="M1973.07 1430.07L1982.46 1430.07L1982.46 1439.46L1973.07 1439.46L1973.07 1430.07z"/>
<path class="l5" d="M1897.97 1486.4L1907.35 1486.4L1907.35 1495.79L1897.97 1495.79L1897.97 1486.4z"/>
<path class="l5" d="M1973.07 1542.73L1982.46 1542.73L1982.46 1552.11L1973.07 1552.11L1973.07 1542.73z"/>
<path class="l5" d="M1977.62 1490.95L1977.91 1490.95L1977.91 1491.24L1977.62 1491.24L1977.62 1490.95z"/>
<path class="l5" d="M1975.42 1225.88L1980.11 1225.88L1980.11 1230.58L1975.42 1230.58L1975.42 1225.88z"/>
<path class="l5" d="M1254.89 547.607L1245.51 552.301L1254.89 556.995L1254.89 547.607"/>
<path class="l5" d="M1240.81 603.935L1250.2 603.935L1250.2 613.322L1240.81 613.322L1240.81 603.935z"/>
<path class="l5" d="M1315.92 547.607L1325.3 547.607L1325.3 556.995L1315.92 556.995L1315.92 547.607z"/>
<path class="l5" d="M1240.81 491.28L1250.2 491.28L1250.2 500.668L1240.81 500.668L1240.81 491.28z"/>
<path class="l5" d="M1245.36 552.154L1245.65 552.154L1245.65 552.448L1245.36 552.448L1245.36 552.154z"/>
<path class="l5" d="M1574.08 547.607L1583.47 552.301L1574.08 556.995L1574.08 547.607"/>
<path class="l5" d="M1578.78 603.935L1588.17 603.935L1588.17 613.322L1578.78 613.322L1578.78 603.935z"/>
<path class="l5" d="M1503.67 547.607L1513.06 547.607L1513.06 556.995L1503.67 556.995L1503.67 547.607z"/>
<path class="l5" d="M1578.78 491.28L1588.17 491.28L1588.17 500.668L1578.78 500.668L1578.78 491.28z"/>
<path class="l5" d="M1583.32 552.154L1583.62 552.154L1583.62 552.448L1583.32 552.448L1583.32 552.154z"/>
<path class="l1" d="M1245.51 420.87L1245.51 495.974"/>
<path class="l1" d="M1245.51 420.87L1583.47 420.87"/>
<path class="l1" d="M1583.47 420.87L1583.47 495.974"/>
<path class="l1" d="M1583.47 495.974L1583.47 552.301"/>
<path class="l1" d="M1245.51 495.974L1245.51 552.301"/>
<path class="l1" d="M1245.51 608.628L1245.51 1078.02"/>
<path class="l1" d="M1583.47 608.628L1583.47 1078.02"/>
<path class="l1" d="M1245.51 1190.68L1245.51 1265.78"/>
<path class="l1" d="M1245.51 1265.78L1583.47 1265.78"/>
<path class="l1" d="M1583.47 1190.68L1583.47 1265.78"/>
<path class="l1" d="M1283.06 1584.97L1414.49 1584.97"/>
<path class="l1" d="M1658.57 1134.35L1808.78 1134.35"/>
<path class="l1" d="M1245.51 1134.35L1395.71 1134.35"/>
<path class="l1" d="M663.456 1378.44L663.456 1434.76"/>
<path class="l1" d="M663.456 1491.09L663.456 1547.42"/>
<path class="l1" d="M963.869 1134.35L1170.4 1134.35"/>
<path class="l1" d="M738.559 1434.76L738.559 1491.09"/>
<path class="l1" d="M663.456 1584.97L1283.06 1584.97"/>
<path class="l1" d="M1395.71 1134.35L1583.47 1134.35"/>
<path class="l1" d="M663.456 1547.42L663.456 1584.97"/>
<path class="l1" d="M1395.71 1491.09L1395.71 1547.42"/>
<path class="l1" d="M1395.71 1547.42L1395.71 1584.97"/>
<path class="l1" d="M1114.08 1491.09L1114.08 1547.42"/>
<path class="l1" d="M1114.08 1547.42L1114.08 1584.97"/>
<path class="l1" d="M1414.49 1584.97L1583.47 1584.97"/>
<path class="l1" d="M1696.13 1547.42L1696.13 1584.97"/>
<path class="l1" d="M1696.13 1491.09L1696.13 1547.42"/>
<path class="l1" d="M663.456 1378.44L1508.37 1378.44"/>
<path class="l1" d="M1621.02 1378.44L1621.02 1491.09"/>
<path class="l1" d="M738.559 1378.44L738.559 1434.76"/>
<path class="l1" d="M1320.61 1378.44L1320.61 1491.09"/>
<path class="l1" d="M1038.97 1378.44L1038.97 1491.09"/>
<path class="l1" d="M1696.13 1059.25L1696.13 1434.76"/>
<path class="l1" d="M1508.37 1378.44L1621.02 1378.44"/>
<path class="l1" d="M1583.47 1584.97L1696.13 1584.97"/>
<path class="l1" d="M1395.71 1265.78L1395.71 1434.76"/>
<path class="l1" d="M1114.08 1040.47L1114.08 1434.76"/>
<path class="l1" d="M1114.08 1040.47L1245.51 1040.47"/>
<path class="l1" d="M1583.47 1040.47L1696.13 1040.47"/>
<path class="l1" d="M1433.26 1134.35L1433.26 1415.99"/>
<path class="l1" d="M1433.26 1415.99L1564.7 1415.99"/>
<path class="l1" d="M1564.7 1415.99L1564.7 1584.97"/>
<path class="l1" d="M1696.13 1040.47L1696.13 1059.25"/>
<path class="l1" d="M1207.95 721.283L1245.51 721.283"/>
<path class="l1" d="M1583.47 721.283L1621.02 721.283"/>
<path class="l1" d="M1545.92 721.283L1583.47 721.283"/>
<path class="l1" d="M1395.71 721.283L1433.26 721.283"/>
<path class="l1" d="M1245.51 721.283L1283.06 721.283"/>
<path class="l1" d="M1339.39 420.87L1339.39 683.732"/>
<path class="l1" d="M1489.59 420.87L1489.59 683.732"/>
<path class="l1" d="M1414.49 552.301L1414.49 721.283"/>
<path class="l1" d="M1414.49 552.301L1508.37 552.301"/>
<path class="l1" d="M1320.61 552.301L1414.49 552.301"/>
<path class="l1" d="M1696.13 1584.97L1977.76 1584.97"/>
<path class="l1" d="M1977.76 1547.42L1977.76 1584.97"/>
<path class="l1" d="M1977.76 1491.09L1977.76 1547.42"/>
<path class="l1" d="M1902.66 1378.44L1902.66 1491.09"/>
<path class="l1" d="M1621.02 1378.44L1902.66 1378.44"/>
<path class="l1" d="M1977.76 683.732L1977.76 1434.76"/>
<path class="l1" d="M1977.76 646.18L1977.76 683.732"/>
<path class="l1" d="M1414.49 646.18L1977.76 646.18"/>
<circle class="l1" cx="1245.51" cy="1040.47" r="7.51033"/>
<circle class="l1" cx="1038.97" cy="1378.44" r="7.51033"/>
<circle class="l1" cx="738.559" cy="1378.44" r="7.51033"/>
<circle class="l1" cx="1114.08" cy="1584.97" r="7.51033"/>
<circle class="l1" cx="1414.49" cy="646.18" r="7.51033"/>
<circle class="l1" cx="1414.49" cy="552.301" r="7.51033"/>
<circle class="l1" cx="1414.49" cy="552.301" r="7.51033"/>
<circle class="l1" cx="1414.49" cy="552.301" r="7.51033"/>
<circle class="l1" cx="1414.49" cy="721.283" r="7.51033"/>
<circle class="l1" cx="1489.59" cy="420.87" r="7.51033"/>
<circle class="l1" cx="1339.39" cy="420.87" r="7.51033"/>
<circle class="l1" cx="1621.02" cy="1378.44" r="7.51033"/>
<circle class="l1" cx="1245.51" cy="721.283" r="7.51033"/>
<circle class="l1" cx="1583.47" cy="721.283" r="7.51033"/>
<circle class="l1" cx="1583.47" cy="721.283" r="7.51033"/>
<circle class="l1" cx="1245.51" cy="721.283" r="7.51033"/>
<circle class="l1" cx="1564.7" cy="1584.97" r="7.51033"/>
<circle class="l1" cx="1433.26" cy="1134.35" r="7.51033"/>
<circle class="l1" cx="1583.47" cy="1040.47" r="7.51033"/>
<circle class="l1" cx="1395.71" cy="1265.78" r="7.51033"/>
<circle class="l1" cx="1621.02" cy="1378.44" r="7.51033"/>
<circle class="l1" cx="1320.61" cy="1378.44" r="7.51033"/>
<circle class="l1" cx="1621.02" cy="1378.44" r="7.51033"/>
<circle class="l1" cx="1696.13" cy="1584.97" r="7.51033"/>
<circle class="l1" cx="1696.13" cy="1584.97" r="7.51033"/>
<circle class="l1" cx="1696.13" cy="1584.97" r="7.51033"/>
<circle class="l1" cx="1395.71" cy="1584.97" r="7.51033"/>
</svg>
